<svg id="svg" version="1.1" xmlns="http://www.w3.org/2000/svg" xmlns:xlink="http://www.w3.org/1999/xlink" width="400" height="325.8426966292135" viewBox="0, 0, 400,325.8426966292135">
  <style>
    @media (prefers-color-scheme: dark) {
      path {fill: #FFFFFF}
    }
  </style>
  <g id="svgg">
    <path d="M75.531 1.749 C 73.395 3.245,73.034 4.533,73.034 10.651 L 73.034 17.805 41.573 65.349 L 10.111 112.894 27.193 130.003 C 36.588 139.412,44.046 147.293,43.767 147.515 C 39.531 150.881,35.521 152.809,32.754 152.809 C 27.927 152.809,23.509 156.951,23.048 161.908 C 22.438 168.473,8.507 195.116,4.639 197.116 C -2.529 200.823,-0.830 214.508,6.814 214.633 C 7.724 214.648,16.021 227.624,25.843 244.389 C 35.421 260.741,43.614 274.128,44.049 274.138 C 44.484 274.149,59.353 271.878,77.091 269.091 C 94.830 266.305,109.483 264.164,109.653 264.335 C 109.823 264.505,109.211 270.398,108.293 277.429 C 105.763 296.805,104.047 294.484,127.528 303.433 C 151.892 312.718,146.734 312.578,173.273 304.674 C 189.381 299.877,195.826 298.405,197.244 299.198 C 198.504 299.903,200.504 299.878,202.954 299.125 C 210.417 296.835,244.343 303.078,245.578 306.969 C 246.951 311.296,255.121 313.641,258.983 310.818 C 262.551 308.208,296.452 317.471,300.948 322.283 C 306.479 328.205,317.978 325.979,317.978 318.988 C 317.978 316.476,340.114 303.862,345.880 303.089 C 353.080 302.123,355.054 299.792,355.065 292.242 C 355.077 283.603,358.730 268.996,361.657 265.880 C 362.970 264.482,364.053 262.612,364.064 261.725 C 364.097 258.836,384.171 245.598,389.856 244.717 C 398.025 243.451,400.669 238.264,397.548 229.631 C 396.501 226.735,396.623 220.402,398.123 199.776 C 399.170 185.377,400.021 171.945,400.013 169.927 C 400.001 166.644,395.853 161.923,360.520 124.983 L 321.040 83.708 303.232 82.584 L 285.424 81.461 276.420 72.498 C 267.435 63.555,267.416 63.523,267.416 57.611 C 267.416 49.567,265.039 47.191,256.992 47.191 C 247.843 47.191,246.067 49.005,246.067 58.353 C 246.067 67.670,247.294 69.029,255.929 69.279 C 261.485 69.441,274.748 78.435,272.599 80.585 C 270.893 82.290,172.574 75.008,169.820 72.972 C 162.495 67.557,152.694 69.665,148.052 77.656 C 145.790 81.549,54.406 142.697,50.849 142.697 C 49.759 142.697,20.225 113.192,20.225 112.103 C 20.225 111.636,33.385 91.339,49.469 66.999 L 78.714 22.745 85.031 22.221 C 92.903 21.568,94.382 19.797,94.382 11.021 C 94.382 0.807,84.098 -4.251,75.531 1.749 M248.014 89.491 L 284.230 91.456 289.391 96.696 L 294.552 101.936 287.082 108.136 C 275.031 118.139,275.444 118.186,232.689 101.973 C 188.297 85.138,190.767 86.353,202.247 86.993 C 207.500 87.286,228.095 88.410,248.014 89.491 M219.965 108.060 C 244.851 117.460,265.076 125.532,264.909 125.996 C 264.039 128.428,207.869 174.088,206.428 173.535 C 204.485 172.790,205.799 175.607,186.357 130.511 C 171.023 94.945,169.828 91.118,174.014 90.990 C 174.402 90.978,195.080 98.659,219.965 108.060 M149.859 93.961 C 149.781 94.501,145.003 114.699,139.239 138.844 C 126.459 192.387,130.956 187.600,101.553 178.961 L 79.845 172.582 68.968 161.664 L 58.091 150.746 72.575 141.384 C 80.541 136.235,100.715 123.099,117.406 112.192 C 145.287 93.973,150.258 91.181,149.859 93.961 M304.494 92.988 C 304.494 95.527,300.183 96.446,298.257 94.319 C 296.334 92.194,296.392 92.135,300.388 92.135 C 302.646 92.135,304.494 92.519,304.494 92.988 M178.290 137.461 C 198.393 184.227,198.120 182.648,187.606 191.292 C 184.035 194.228,180.763 196.629,180.334 196.629 C 179.904 196.629,177.941 197.394,175.971 198.329 C 172.572 199.942,171.615 199.797,157.352 195.520 C 149.082 193.040,142.186 191.011,142.027 191.011 C 137.416 191.011,140.971 171.950,158.928 100.404 C 160.132 95.609,161.079 97.422,178.290 137.461 M318.371 111.218 L 319.150 115.132 313.529 109.596 L 307.909 104.060 311.539 101.019 L 315.169 97.977 316.381 102.640 C 317.047 105.205,317.943 109.065,318.371 111.218 M367.451 147.370 L 375.335 155.975 363.229 151.453 C 351.688 147.141,350.688 146.500,341.776 137.704 L 332.427 128.479 330.288 119.015 C 329.111 113.809,328.154 108.792,328.161 107.865 C 328.174 106.301,349.146 127.387,367.451 147.370 M323.013 132.338 C 323.393 133.855,323.486 135.315,323.219 135.582 C 322.768 136.034,291.168 124.424,287.956 122.626 C 286.966 122.072,288.908 119.817,294.096 115.495 L 301.685 109.175 312.003 119.377 C 317.677 124.989,322.632 130.821,323.013 132.338 M302.414 139.268 C 313.733 143.561,323.193 147.669,323.436 148.397 C 323.678 149.124,324.728 150.570,325.768 151.611 C 326.852 152.695,328.871 159.106,330.499 166.639 L 333.339 179.777 320.772 198.596 L 308.206 217.416 297.924 223.819 C 283.884 232.561,282.237 232.576,253.933 224.206 C 229.530 216.990,228.512 216.584,227.593 213.687 C 227.236 212.562,225.305 210.855,223.303 209.894 C 219.450 208.045,210.224 189.522,212.466 188.136 C 213.026 187.791,213.511 186.400,213.546 185.046 C 213.629 181.800,271.610 133.488,275.982 133.022 C 277.586 132.851,279.181 132.430,279.525 132.086 C 280.582 131.029,281.230 131.232,302.414 139.268 M346.678 159.111 C 345.724 160.589,344.059 163.167,342.978 164.840 L 341.011 167.882 339.715 162.312 C 337.457 152.612,337.424 152.680,343.307 154.685 C 348.333 156.397,348.386 156.467,346.678 159.111 M58.465 161.383 C 62.552 165.594,63.855 167.527,62.360 167.162 C 61.124 166.860,55.962 165.415,50.889 163.951 L 41.667 161.288 46.395 158.244 C 52.440 154.353,51.372 154.075,58.465 161.383 M370.966 165.235 L 384.067 170.114 367.033 180.716 C 357.665 186.547,349.210 191.536,348.244 191.803 C 346.569 192.265,343.820 184.257,343.820 178.912 C 343.820 176.244,355.198 159.367,356.637 159.901 C 357.312 160.151,363.761 162.551,370.966 165.235 M65.730 179.198 L 80.337 183.369 90.730 193.629 C 99.419 202.205,101.124 204.462,101.124 207.388 C 101.124 213.150,104.112 214.861,113.412 214.421 C 118.410 214.185,121.219 214.464,120.949 215.169 C 120.713 215.787,119.140 222.233,117.453 229.494 C 115.767 236.756,113.970 242.697,113.460 242.697 C 111.235 242.697,105.849 248.564,105.229 251.663 C 104.856 253.529,103.906 255.061,103.118 255.066 C 102.330 255.072,90.562 256.834,76.966 258.982 C 63.371 261.131,51.427 262.896,50.424 262.905 C 49.230 262.916,43.419 254.111,33.570 237.365 C 14.710 205.298,14.753 205.556,24.877 185.190 C 33.299 168.246,29.391 168.819,65.730 179.198 M387.984 202.224 C 386.242 225.131,386.227 225.212,383.006 228.221 C 381.229 229.881,379.761 232.426,379.744 233.878 C 379.716 236.287,362.880 250.000,359.950 250.000 C 357.565 250.000,349.962 208.507,351.685 204.897 C 353.076 201.983,388.359 177.873,389.525 179.039 C 389.639 179.152,388.945 189.585,387.984 202.224 M108.734 193.323 C 106.669 193.667,104.445 194.280,103.792 194.684 C 103.138 195.088,100.965 193.728,98.963 191.663 L 95.323 187.907 103.906 190.302 C 111.837 192.515,112.203 192.744,108.734 193.323 M334.903 195.373 C 334.245 196.601,333.692 198.523,333.672 199.645 C 333.652 200.834,331.557 202.947,328.655 204.708 L 323.672 207.731 329.533 198.885 C 334.562 191.293,338.445 188.754,334.903 195.373 M206.534 202.983 L 209.922 211.023 202.433 208.857 C 198.314 207.666,193.806 206.395,192.416 206.033 C 188.556 205.028,189.340 203.090,195.697 197.919 C 202.361 192.498,202.054 192.354,206.534 202.983 M123.464 197.508 C 124.058 198.616,124.156 201.248,123.684 203.406 C 122.858 207.184,122.818 207.122,122.371 201.404 C 121.860 194.864,121.925 194.632,123.464 197.508 M152.528 204.577 C 159.480 206.634,165.169 208.667,165.169 209.096 C 165.169 209.525,156.067 217.539,144.944 226.905 C 133.820 236.270,124.730 243.528,124.743 243.034 C 124.805 240.750,134.402 202.635,135.250 201.307 C 135.777 200.480,137.036 200.037,138.048 200.320 C 139.060 200.604,145.576 202.520,152.528 204.577 M344.160 228.949 C 348.435 248.330,348.924 251.685,347.472 251.685 C 346.377 251.686,304.055 239.195,303.543 238.721 C 300.952 236.318,332.754 211.002,339.385 210.189 C 339.727 210.147,341.876 218.589,344.160 228.949 M199.401 218.614 C 206.343 220.694,210.362 222.580,212.323 224.676 C 213.888 226.350,215.739 227.929,216.436 228.185 C 218.700 229.018,231.274 260.023,230.656 263.251 C 229.782 267.823,207.830 281.322,201.774 281.011 C 199.351 280.887,196.003 281.351,194.334 282.042 C 189.926 283.868,129.213 259.261,129.213 255.649 C 129.213 254.038,135.846 247.816,151.404 234.828 C 178.633 212.100,178.177 212.254,199.401 218.614 M254.775 234.984 C 263.581 237.561,270.769 239.971,270.749 240.340 C 270.640 242.257,244.392 257.027,242.402 256.291 C 240.622 255.632,233.812 241.835,228.936 229.005 C 228.272 227.260,228.628 227.236,233.490 228.705 C 236.391 229.581,245.969 232.407,254.775 234.984 M275.470 256.647 C 274.973 266.274,277.007 268.539,286.147 268.539 C 295.109 268.539,296.629 266.899,296.629 257.232 L 296.629 249.643 321.134 255.941 C 350.688 263.537,350.122 263.121,347.285 275.190 C 345.555 282.553,344.994 283.553,341.849 284.875 C 339.277 285.956,337.998 287.499,337.050 290.663 C 335.405 296.153,315.756 308.478,310.679 307.204 C 309.108 306.810,306.330 307.105,304.508 307.860 C 299.417 309.968,264.688 301.735,262.992 298.017 C 262.353 296.618,260.622 294.922,259.144 294.248 C 257.243 293.382,255.151 289.985,251.995 282.638 C 246.061 268.821,246.512 267.824,263.483 257.268 C 270.281 253.040,275.843 249.547,275.843 249.507 C 275.843 249.467,275.675 252.680,275.470 256.647 M153.639 278.900 C 169.235 285.252,182.000 290.702,182.003 291.011 C 182.007 291.320,174.774 293.711,165.930 296.324 L 149.850 301.074 133.651 294.844 C 124.742 291.418,117.357 288.518,117.240 288.401 C 116.927 288.088,119.198 269.366,119.767 267.569 C 120.439 265.446,121.351 265.751,153.639 278.900 M241.477 283.989 C 243.538 288.778,245.460 293.306,245.747 294.051 C 246.110 294.992,244.068 294.775,239.047 293.339 C 235.076 292.204,228.583 290.906,224.621 290.456 C 213.318 289.173,213.302 288.688,224.334 281.715 C 237.207 273.578,236.985 273.549,241.477 283.989 "></path>
  </g>
</svg>